<?xml version="1.0" encoding="utf-8"?>
<!-- Generator: Adobe Illustrator 25.2.3, SVG Export Plug-In . SVG Version: 6.00 Build 0)  -->
<svg version="1.1" id="Calque_1" xmlns="http://www.w3.org/2000/svg" xmlns:xlink="http://www.w3.org/1999/xlink" x="0px" y="0px"
	 viewBox="0 0 561.8 166.2" style="enable-background:new 0 0 561.8 166.2;" xml:space="preserve">
<style type="text/css">
	.st0{fill:#193782;}
	.st1{fill:#FFD200;}
</style>
<g>
	<path class="st0" d="M453.4,68.2h-2.7v-9.8h2.7v-1.7h-7.6v1.7h2.7v9.8h-2.7v1.7h7.6V68.2z M394.5,92.9c1.5,0,2.7-0.6,3.6-1.9
		c0.8-1.2,1.2-2.9,1.2-5c0-2.1-0.4-3.8-1.2-5c-0.8-1.2-2-1.8-3.6-1.8c-1.5,0-2.7,0.6-3.6,1.9c-0.8,1.2-1.2,2.9-1.2,5
		c0,2.1,0.4,3.8,1.2,5C391.8,92.3,393,92.9,394.5,92.9z M392.5,82.2c0.4-0.8,1.1-1.3,2-1.3c0.9,0,1.6,0.4,2,1.3
		c0.4,0.8,0.6,2.1,0.6,3.9c0,1.7-0.2,3-0.6,3.9c-0.4,0.8-1.1,1.3-2,1.3c-0.9,0-1.6-0.4-2-1.3c-0.4-0.8-0.6-2.1-0.6-3.8
		C391.9,84.3,392.1,83,392.5,82.2z M437.5,67.8c-0.5,0.4-1.1,0.6-1.9,0.6c-1.4,0-2.5-0.5-3.5-1.4l-1.2,1.4c1.1,1.2,2.7,1.8,4.6,1.8
		c1,0,1.9-0.2,2.6-0.5c0.7-0.3,1.3-0.8,1.7-1.4c0.4-0.6,0.6-1.3,0.6-2.1c0-1.1-0.3-2-1-2.6c-0.6-0.6-1.6-1.1-2.8-1.5
		c-0.8-0.2-1.4-0.5-1.8-0.7c-0.4-0.2-0.7-0.4-0.9-0.7c-0.2-0.2-0.3-0.5-0.3-0.9c0-0.5,0.2-1,0.6-1.3c0.4-0.3,1-0.4,1.7-0.4
		c1.1,0,2.1,0.4,3,1.2l1.1-1.3c-1.1-1.1-2.5-1.6-4.2-1.6c-0.8,0-1.6,0.1-2.2,0.5c-0.7,0.3-1.2,0.7-1.5,1.3c-0.4,0.5-0.6,1.2-0.6,1.9
		c0,1,0.3,1.8,1,2.4c0.7,0.6,1.7,1.1,3.1,1.5c0.7,0.2,1.2,0.4,1.6,0.6c0.4,0.2,0.6,0.4,0.8,0.7c0.2,0.3,0.2,0.6,0.2,1
		C438.2,66.9,438,67.4,437.5,67.8z M383.4,107.6h-4.1v-5.4h-2.1v13.2h2.1v-6h4.1v6h2.1v-13.2h-2.1V107.6z M384.5,85.5
		c0.5-0.6,0.8-1.4,0.8-2.3c0-2.5-1.6-3.8-4.9-3.8h-3.5v13.2h2.1v-5.4h1.4l3.2,5.4h2.5l-3.6-5.7C383.3,86.6,384,86.2,384.5,85.5z
		 M379,85.6v-4.5h1.5c0.9,0,1.5,0.2,1.9,0.5c0.4,0.3,0.6,0.9,0.6,1.7c0,0.8-0.2,1.4-0.6,1.8c-0.4,0.4-1.1,0.6-1.9,0.6H379z
		 M366.3,109.5h4.6v-1.7h-4.6v-4h5.2l0.2-1.7h-7.6v13.2h7.7v-1.7h-5.6V109.5z M447.1,86.6c0-1.4-0.1-3.1-0.3-5.2l4,11.2h2.8V79.4
		h-1.9v6c0,1,0,1.9,0.1,2.7c0.1,0.8,0.1,1.6,0.2,2.6l-4-11.2h-2.8v13.2h1.9V86.6z M397.6,108.2c0,1,0,1.9,0.1,2.7
		c0.1,0.8,0.1,1.6,0.2,2.6l-4-11.2h-2.8v13.2h1.9v-6c0-1.4-0.1-3.1-0.3-5.2l4,11.2h2.8v-13.2h-1.9V108.2z M408,79.4h-3.5v13.2h2.1
		v-4.7h1.5c1.5,0,2.7-0.4,3.6-1.1c0.9-0.7,1.3-1.8,1.3-3.3c0-1.4-0.4-2.4-1.3-3.1C410.9,79.8,409.6,79.4,408,79.4z M410.2,85.6
		c-0.5,0.4-1.1,0.6-2,0.6h-1.6v-5.1h1.5c1.8,0,2.7,0.8,2.7,2.5C410.9,84.5,410.6,85.2,410.2,85.6z M354.3,70.1
		c0.9,0,1.7-0.2,2.4-0.6c0.7-0.4,1.2-0.9,1.5-1.6c0.3-0.7,0.5-1.5,0.5-2.4v-8.9h-2.1v8.5c0,1.1-0.2,1.9-0.5,2.4
		c-0.4,0.5-0.9,0.8-1.7,0.8c-0.8,0-1.3-0.3-1.7-0.8c-0.4-0.5-0.5-1.3-0.5-2.4v-8.5H350v8.9c0,1.4,0.4,2.5,1.1,3.3
		C351.9,69.7,352.9,70.1,354.3,70.1z M365,63.9c0-1.4-0.1-3.1-0.3-5.2l4,11.2h2.8V56.7h-1.9v6c0,1,0,1.9,0.1,2.7
		c0.1,0.8,0.1,1.6,0.2,2.6l-4-11.2h-2.8v13.2h1.9V63.9z M384.8,68.2h-2.7v-9.8h2.7v-1.7h-7.6v1.7h2.7v9.8h-2.7v1.7h7.6V68.2z
		 M412,68.2h-5.6V64h4.6v-1.7h-4.6v-4h5.2l0.2-1.7h-7.6v13.2h7.7V68.2z M357.7,90.9h-5.6v-4.2h4.6v-1.7h-4.6v-4h5.2l0.2-1.7H350
		v13.2h7.7V90.9z M369.4,92.3c0.7-0.4,1.2-0.9,1.5-1.6c0.3-0.7,0.5-1.5,0.5-2.4v-8.9h-2.1v8.5c0,1.1-0.2,1.9-0.5,2.4
		c-0.4,0.5-0.9,0.8-1.7,0.8c-0.8,0-1.3-0.3-1.7-0.8c-0.4-0.5-0.5-1.3-0.5-2.4v-8.5h-2.1v8.9c0,1.4,0.4,2.5,1.1,3.3
		c0.8,0.8,1.8,1.2,3.2,1.2C368,92.9,368.8,92.7,369.4,92.3z M350,104h3.8v11.4h2.1V104h3.6l0.2-1.8H350V104z M450.1,109.7h2.1v3.6
		c-0.6,0.4-1.3,0.6-2.1,0.6c-1,0-1.8-0.4-2.3-1.2c-0.5-0.8-0.7-2.1-0.7-3.9c0-1.8,0.3-3,0.9-3.9c0.6-0.8,1.4-1.2,2.4-1.2
		c0.5,0,0.9,0.1,1.3,0.3c0.4,0.2,0.8,0.4,1.2,0.8l1.2-1.3c-0.5-0.5-1.1-0.9-1.7-1.2c-0.6-0.2-1.3-0.4-2.1-0.4c-1,0-1.9,0.3-2.8,0.8
		c-0.8,0.5-1.5,1.3-2,2.3c-0.5,1-0.7,2.3-0.7,3.7c0,2.2,0.4,3.9,1.3,5.1c0.9,1.2,2.2,1.7,3.8,1.7c0.8,0,1.6-0.1,2.3-0.3
		c0.7-0.2,1.3-0.5,2-0.9V108h-4.4L450.1,109.7z M474.9,109.5h4.6v-1.7h-4.6v-4h5.2l0.2-1.7h-7.6v13.2h7.7v-1.7h-5.6V109.5z
		 M488.7,80.8c-1.1-0.9-2.6-1.4-4.4-1.4h-2.9v13.2h3.1c1.7,0,3.1-0.5,4.2-1.5c1.1-1,1.7-2.7,1.7-5.2
		C490.3,83.4,489.8,81.7,488.7,80.8z M484.7,90.9h-1.2v-9.8h1.2c1,0,1.9,0.3,2.5,1c0.6,0.7,0.9,1.9,0.9,3.8
		C488.1,89.3,487,90.9,484.7,90.9z M477.9,69.9h2.2l-4-13.2h-2.6l-4,13.2h2.2l0.9-3.2h4.5L477.9,69.9z M472.9,65l1.8-6.6l1.8,6.6
		H472.9z M461.8,79.4l-4,13.2h2.2l0.9-3.2h4.5l0.9,3.2h2.2l-4-13.2H461.8z M461.3,87.7l1.8-6.6l1.8,6.6H461.3z M515.2,56.7h-2.6
		l-4,13.2h2.2l0.9-3.2h4.5l0.9,3.2h2.2L515.2,56.7z M512,65l1.8-6.6l1.8,6.6H512z M459.2,103.9h2.7v9.8h-2.7v1.7h7.6v-1.7h-2.7v-9.8
		h2.7v-1.7h-7.6V103.9z M499.6,64h4.6v-1.7h-4.6v-4h5.2l0.2-1.7h-7.6v13.2h7.7v-1.7h-5.6V64z M483,58.5h3.8v11.4h2.1V58.5h3.6
		l0.2-1.8H483V58.5z M496.5,86.7h4.6v-1.7h-4.6v-4h5.2l0.2-1.7h-7.6v13.2h7.7v-1.7h-5.6V86.7z M394.8,67.8l-3-11.1h-2.3l4,13.2h2.4
		l4-13.2h-2.2L394.8,67.8z M421.4,102.2h-2.1v13.2h7.5l0.2-1.9h-5.7V102.2z M425.9,81.1l0.2-1.7h-7.6v13.2h7.7v-1.7h-5.6v-4.2h4.6
		v-1.7h-4.6v-4H425.9z M425.9,62.8c0.5-0.6,0.8-1.4,0.8-2.3c0-2.6-1.6-3.8-4.9-3.8h-3.5v13.2h2.1v-5.4h1.4l3.2,5.4h2.5l-3.6-5.7
		C424.7,63.8,425.3,63.4,425.9,62.8z M420.4,62.8v-4.5h1.5c0.9,0,1.5,0.2,1.9,0.5c0.4,0.3,0.6,0.9,0.6,1.7c0,0.8-0.2,1.4-0.6,1.8
		c-0.4,0.4-1.1,0.6-1.9,0.6H420.4z M463.1,76.6c-0.8,0-1.3-0.4-1.6-1.2l-1.2,0.3c0.1,0.8,0.4,1.4,0.9,1.8c0.5,0.5,1.2,0.7,2,0.7
		c0.8,0,1.5-0.2,2-0.7c0.5-0.5,0.8-1.1,0.9-1.8l-1.3-0.3c-0.1,0.4-0.3,0.7-0.6,0.9C463.8,76.5,463.5,76.6,463.1,76.6z M409.1,101.9
		c-1.5,0-2.7,0.6-3.6,1.9c-0.8,1.2-1.2,2.9-1.2,5c0,2.1,0.4,3.8,1.2,5c0.8,1.2,2,1.8,3.6,1.8c1.5,0,2.7-0.6,3.6-1.9
		c0.8-1.2,1.2-2.9,1.2-5c0-2.1-0.4-3.8-1.2-5C411.8,102.5,410.6,101.9,409.1,101.9z M411,112.6c-0.4,0.8-1.1,1.3-2,1.3
		c-0.9,0-1.6-0.4-2-1.3c-0.4-0.8-0.6-2.1-0.6-3.8c0-1.7,0.2-3,0.6-3.9c0.4-0.8,1.1-1.3,2-1.3c0.9,0,1.6,0.4,2,1.3
		c0.4,0.8,0.6,2.1,0.6,3.9C411.7,110.5,411.5,111.8,411,112.6z M461.5,69.9h2.1V58.5h3.6l0.2-1.8h-9.8v1.8h3.8V69.9z M435.1,101.9
		c-1.5,0-2.7,0.6-3.6,1.9c-0.8,1.2-1.2,2.9-1.2,5c0,2.1,0.4,3.8,1.2,5c0.8,1.2,2,1.8,3.6,1.8c1.5,0,2.7-0.6,3.6-1.9
		c0.8-1.2,1.2-2.9,1.2-5c0-2.1-0.4-3.8-1.2-5C437.8,102.5,436.6,101.9,435.1,101.9z M437.1,112.6c-0.4,0.8-1.1,1.3-2,1.3
		c-0.9,0-1.6-0.4-2-1.3c-0.4-0.8-0.6-2.1-0.6-3.8c0-1.7,0.2-3,0.6-3.9c0.4-0.8,1.1-1.3,2-1.3c0.9,0,1.6,0.4,2,1.3s0.6,2.1,0.6,3.9
		C437.7,110.5,437.5,111.8,437.1,112.6z M434.4,79.4l-4,13.2h2.2l0.9-3.2h4.5l0.9,3.2h2.2l-4-13.2H434.4z M433.8,87.7l1.8-6.6
		l1.8,6.6H433.8z"/>
	<polygon class="st1" points="326.1,80.8 310,80.8 310,64.7 299.5,64.7 299.5,80.8 283.5,80.8 283.5,91.3 299.5,91.3 299.5,107.3 
		310,107.3 310,91.3 326.1,91.3 	"/>
	<path class="st0" d="M249,123.6V64.7h10.5v58.9H249z M214.6,42.6v70.5h-18.8c-10.9,0-18.8-7-18.8-16.8V42.6h-10.5v34
		c-0.1,20.4-15.8,36.4-35.7,36.4c-16.5,0-28.8-8.1-33.2-21.8h24.9c18.9,0,28.7-13.2,28.7-26.3c0-12.4-9.6-24.9-27.9-24.9
		c-20.6,0-37.9,18.2-37.9,39.7c0,0.3,0,0.6,0,0.9H42.6v10.5h43.9c4.8,19.7,22,32.3,44.2,32.3c14.8,0,28.5-7,37.1-18.7
		c3.7,11.3,14.7,18.7,28,18.7h29.3V53.1h58.3V42.6H214.6z M95.7,80.8c0-0.3,0-0.6,0-0.9c0-15.6,12.8-29.2,27.4-29.2
		c13.8,0,17.4,9.4,17.4,14.4c0,10.8-9.4,15.8-18.2,15.8H95.7z"/>
</g>
</svg>
