<?xml version="1.0" encoding="utf-8"?>
<!-- Generator: Adobe Illustrator 25.2.3, SVG Export Plug-In . SVG Version: 6.00 Build 0)  -->
<svg version="1.1" id="Layer_1" xmlns="http://www.w3.org/2000/svg" xmlns:xlink="http://www.w3.org/1999/xlink" x="0px" y="0px"
	 viewBox="0 0 1031.8 708.7" style="enable-background:new 0 0 1031.8 708.7;" xml:space="preserve">
<style type="text/css">
	.st0{fill-rule:evenodd;clip-rule:evenodd;}
	.st1{fill-rule:evenodd;clip-rule:evenodd;fill:#BB181D;stroke:#FFFFFF;stroke-width:0.216;stroke-miterlimit:2.6131;}
</style>
<g>
	<g>
		<path d="M333.8,542.9c4.3,0,7.8,0.8,10.6,2.3c2.8,1.5,4.3,4.3,4.7,8.3c0,0.5,0.1,0.8,0.1,1c0,1.2-0.2,2.5-0.7,3.7
			c-0.5,1.3-1.2,2.4-2.3,3.5c-1.1,1.1-2.5,2-4.3,2.7c-1.8,0.7-4,1-6.6,1h-5.7v-22.5H333.8z M334,547l-0.1,14.4c0.1,0,0.3,0,0.5,0
			c0.2,0,0.4,0,0.5,0c2.9,0,5.2-0.6,6.9-1.7c1.7-1.1,2.6-2.9,2.6-5.4c0-1.4-0.3-2.7-1-3.8c-0.7-1.1-1.7-2-3.1-2.6
			c-1.4-0.6-3.2-0.9-5.3-0.9C334.6,546.9,334.3,547,334,547z"/>
		<path d="M357.5,542.9h4.5v22.5h-4.5V542.9z"/>
		<path d="M371.7,542.9h5.2l10.1,16.6v-16.6h4.5v22.5h-5L376.3,549v16.5h-4.5V542.9z"/>
		<path d="M414.1,553.8c0-1.1,0.3-2.3,0.8-3.6c0.6-1.3,1.4-2.6,2.5-3.7c1.1-1.2,2.4-2.1,4-2.8c1.6-0.7,3.4-1.1,5.3-1.1
			c1.5,0,3,0.3,4.6,0.8c1.6,0.6,3.1,1.4,4.3,2.4c1.3,1,2.2,2.2,2.6,3.6h-5.1c-1.9-1.9-4-2.8-6.4-2.8c-1.4,0-2.8,0.4-4,1.1
			c-1.3,0.7-2.3,1.7-3,2.8c-0.8,1.2-1.1,2.4-1.1,3.7c0,1.1,0.2,2.2,0.7,3.1c0.4,1,1.1,1.8,1.9,2.5c0.8,0.7,1.7,1.2,2.6,1.6
			c1,0.4,2,0.6,3.1,0.6c2.4-0.1,4.4-0.9,6.1-2.6h5.3c-0.6,1.2-1.3,2.2-2.2,3.1c-0.9,0.9-2,1.6-3.1,2.1c-1.1,0.5-2.2,0.9-3.4,1.1
			c-1.1,0.2-2.2,0.3-3.2,0.3c-2.2-0.1-4.2-0.7-6-1.7c-1.8-1-3.3-2.4-4.4-4.2C414.8,558.3,414.2,556.2,414.1,553.8z"/>
		<path d="M446.2,542.9h4.5v18.5h7.5v4h-12V542.9z"/>
		<path d="M465.7,558.1v-15.2h4.5v15.2c0,0.8,0.2,1.4,0.5,2c0.3,0.6,0.8,1,1.4,1.4c0.6,0.3,1.2,0.5,1.8,0.5c0.6,0,1.3-0.1,1.8-0.4
			c0.6-0.3,1.1-0.7,1.4-1.2c0.4-0.6,0.5-1.2,0.5-2v-15.3h4.6v15.2c0,1.3-0.3,2.6-1,3.8c-0.7,1.2-1.7,2.2-2.9,2.9
			c-1.3,0.8-2.7,1.1-4.3,1.1c-1.5,0-2.9-0.4-4.1-1.1c-1.3-0.7-2.3-1.6-3-2.8C466.1,560.9,465.7,559.6,465.7,558.1z"/>
		<path d="M498.8,559.1v-16.2h4.5v16.8c0,0.9-0.2,1.7-0.5,2.4c-0.3,0.8-0.8,1.4-1.3,2c-0.6,0.6-1.2,1-2,1.3
			c-0.7,0.3-1.5,0.5-2.4,0.5c-1.4,0-2.6-0.2-3.7-0.7c-1.1-0.5-2-1.1-2.6-2c-0.6-0.9-1-1.9-1-3h4.5c0,0.4,0.3,0.8,0.7,1.1
			c0.4,0.3,0.9,0.5,1.4,0.5c0.6,0,1.2-0.3,1.6-0.7C498.6,560.7,498.8,560,498.8,559.1z"/>
		<path d="M512.9,557.5V554h9.2v3.6H512.9z"/>
		<path d="M531.6,542.9h5.2l10.1,16.6v-16.6h4.5v22.5h-5L536.1,549v16.5h-4.5V542.9z"/>
		<path d="M569.3,542.9h3.5l10.3,22.5h-5l-2.7-5.8h-8.7l-2.7,5.8h-5L569.3,542.9z M571,548.8l-2.6,6.8h5.2L571,548.8z"/>
		<path d="M590.5,565.4v-22.5h6.7c2.2,0,4,0.3,5.3,1c1.3,0.7,2.3,1.6,2.8,2.7c0.5,1.1,0.8,2.2,0.8,3.5c-0.1,1.3-0.5,2.5-1.1,3.5
			c-0.6,1-1.5,1.8-2.7,2.4c-1.2,0.6-2.6,0.9-4.3,0.9h-3v8.5H590.5z M595.1,552.8h2.3c1.2-0.1,2.2-0.3,3-0.8c0.8-0.5,1.2-1.2,1.3-2.2
			c0-1.1-0.4-1.8-1.2-2.2c-0.8-0.4-1.8-0.6-3-0.7h-2.4V552.8z"/>
		<path d="M612.9,554.6c0-2.5,0.6-4.7,1.9-6.5c1.2-1.8,2.9-3.2,4.8-4.1c2-0.9,4-1.4,6.1-1.4c1.7,0,3.3,0.3,4.9,1
			c1.6,0.6,2.9,1.5,4.1,2.6c1.2,1.1,2.1,2.4,2.7,3.8c0.7,1.4,1,2.9,1,4.5c0,0.1,0,0.2,0,0.3c0,0.1,0,0.2,0,0.3
			c-0.1,1.3-0.6,2.9-1.5,4.6c-0.9,1.7-2.4,3.2-4.3,4.5c-1.9,1.3-4.3,1.9-7.1,1.9c-2.1,0-3.9-0.4-5.5-1.1c-1.6-0.7-2.9-1.7-4-2.8
			c-1-1.2-1.8-2.4-2.3-3.7C613.1,557.1,612.9,555.8,612.9,554.6z M617.3,554.4c0.1,1.2,0.3,2.2,0.9,3.2c0.5,0.9,1.2,1.7,2,2.4
			c0.8,0.7,1.7,1.1,2.6,1.5c0.9,0.3,1.8,0.5,2.6,0.5c1.5,0,2.8-0.3,4.1-1c1.3-0.7,2.3-1.6,3-2.8c0.8-1.2,1.2-2.5,1.2-3.9
			c0-1.3-0.3-2.5-1-3.7c-0.6-1.2-1.6-2.1-2.8-2.8c-1.2-0.7-2.6-1.1-4.1-1.2c-0.9,0-1.9,0.2-2.9,0.5c-1,0.3-1.9,0.8-2.8,1.5
			c-0.9,0.6-1.6,1.5-2.1,2.5C617.6,552,617.3,553.1,617.3,554.4z"/>
		<path d="M645.6,553.8c0-1.1,0.3-2.3,0.8-3.6c0.6-1.3,1.4-2.6,2.5-3.7c1.1-1.2,2.4-2.1,4-2.8c1.6-0.7,3.4-1.1,5.3-1.1
			c1.5,0,3,0.3,4.6,0.8c1.6,0.6,3.1,1.4,4.3,2.4c1.3,1,2.2,2.2,2.6,3.6h-5.1c-1.9-1.9-4-2.8-6.4-2.8c-1.4,0-2.8,0.4-4,1.1
			c-1.3,0.7-2.3,1.7-3,2.8c-0.8,1.2-1.1,2.4-1.1,3.7c0,1.1,0.2,2.2,0.7,3.1c0.4,1,1.1,1.8,1.8,2.5c0.8,0.7,1.7,1.2,2.6,1.6
			c1,0.4,2,0.6,3.1,0.6c2.4-0.1,4.4-0.9,6.1-2.6h5.3c-0.6,1.2-1.3,2.2-2.2,3.1c-0.9,0.9-2,1.6-3.1,2.1c-1.1,0.5-2.2,0.9-3.4,1.1
			c-1.1,0.2-2.2,0.3-3.2,0.3c-2.2-0.1-4.2-0.7-6-1.7c-1.8-1-3.3-2.4-4.4-4.2C646.3,558.3,645.7,556.2,645.6,553.8z"/>
		<path d="M685.8,542.9h3.5l10.3,22.5h-5l-2.7-5.8h-8.7l-2.7,5.8h-5L685.8,542.9z M687.6,548.8l-2.6,6.8h5.2L687.6,548.8z"/>
	</g>
	<g>
		<path d="M190,426.3v-28.7h19v28.8c0,3.3,0.4,5.7,1.2,6.9c0.8,1.3,2.2,1.9,4.1,1.9c1.9,0,3.3-0.7,4.1-1.9c0.8-1.3,1.2-3.6,1.2-6.9
			v-28.8h19v28.7c0,3.8-0.2,6.8-0.7,9.3c-0.5,2.4-1.3,4.5-2.4,6.1c-2.1,3.3-5,5.8-8.7,7.6c-3.7,1.8-7.8,2.6-12.5,2.6
			c-4.7,0-8.9-0.9-12.6-2.6c-3.7-1.8-6.5-4.3-8.7-7.6c-1.1-1.6-1.8-3.6-2.3-6C190.2,433.3,190,430.1,190,426.3z"/>
		<path d="M252.2,450.5v-52.9h18.6l16.4,27.7c-0.2-1.2-0.4-2.6-0.5-4.1c-0.1-1.5-0.1-3.4-0.1-5.8v-17.7H305v52.9h-18.8l-16.2-27.4
			c0.2,1.2,0.3,2.4,0.4,3.8c0.1,1.4,0.1,2.9,0.1,4.6v19.1H252.2z"/>
		<path d="M318.8,450.5v-52.9h19.3v52.9H318.8z"/>
		<path d="M364.8,450.5l-20.2-52.9h20.6l5.6,19.1c0.8,2.8,1.4,5.2,1.8,7.1c0.4,1.9,0.7,3.7,0.8,5.4h0.4c0.2-1.8,0.6-3.7,1-5.6
			c0.4-2,1-4.1,1.7-6.4l5.9-19.6h20.2l-20.1,52.9H364.8z"/>
		<path d="M408.7,450.5v-52.9H444V412h-16.7v5.1h15.2v13.5h-15.2v5.6h17.2v14.3H408.7z"/>
		<path d="M455.9,450.5v-52.9h23.9c6.9,0,12.2,1.5,15.9,4.6c3.7,3.1,5.5,7.5,5.5,13.2c0,3.8-0.9,6.8-2.8,9.3s-4.3,3.9-7.4,4.3
			l14.1,21.5h-21.3l-9.2-17.4v17.4H455.9z M474.6,411.3v10.3h3c1.8,0,3.2-0.4,4.2-1.3c1-0.9,1.5-2.1,1.5-3.8c0-1.7-0.5-3-1.5-3.9
			c-1-0.9-2.4-1.4-4.2-1.4H474.6z"/>
		<path d="M507.8,446l6.1-14.8c2.7,1.9,5.1,3.3,7.3,4.2c2.1,0.9,4.1,1.3,6,1.3c1.3,0,2.3-0.2,3.1-0.7c0.7-0.5,1.1-1.2,1.1-2
			c0-1.5-1.9-2.6-5.6-3.4c-1.2-0.3-2.1-0.5-2.8-0.6c-3.9-1-7-2.7-9.1-5.1c-2.1-2.5-3.1-5.5-3.1-9.2c0-5.7,2-10.3,6.1-13.9
			c4.1-3.6,9.4-5.3,16-5.3c3,0,6,0.4,9,1.2c2.9,0.8,5.9,2,8.9,3.6l-5.8,13.8c-1.8-1.3-3.7-2.4-5.5-3.1c-1.8-0.7-3.6-1.1-5.4-1.1
			c-1.3,0-2.3,0.2-3.1,0.7c-0.7,0.4-1.1,1.1-1.1,1.9c0,1.5,2.6,2.8,7.9,3.9c0.8,0.2,1.5,0.3,1.9,0.4c3.6,0.8,6.5,2.5,8.6,5
			c2.1,2.5,3.1,5.6,3.1,9.2c0,5.8-2.1,10.6-6.3,14.3c-4.2,3.7-9.7,5.6-16.5,5.6c-3.5,0-6.9-0.5-10.4-1.5
			C514.8,449.4,511.3,448,507.8,446z"/>
		<path d="M561.9,450.5v-52.9h19.3v52.9H561.9z"/>
		<path d="M602.1,450.5v-35.6h-10.6v-17.3h40.1v17.3h-10.6v35.6H602.1z"/>
	</g>
	<g>
		<path d="M631.8,450.5l18.8-52.9h21.2l18.5,52.9h-20.4l-1.7-6.6h-14.3l-1.6,6.6H631.8z M657,431.3h7.9l-1.6-6c-0.8-3-1.3-5.4-1.6-7
			c-0.3-1.6-0.5-3.2-0.5-4.6h-0.3c-0.1,1.4-0.3,3-0.5,4.6c-0.3,1.6-0.8,4-1.6,7L657,431.3z"/>
		<path d="M700.9,450.5v-35.6h-10.6v-17.3h40.1v17.3h-10.6v35.6H700.9z"/>
	</g>
	<g>
		<path d="M740.4,450.5v-52.9h35.3V412H759v5.1h15.2v13.5H759v5.6h17.1v14.3H740.4z"/>
		<path d="M780.6,450.5l18.8-52.9h21.2l18.5,52.9h-20.4l-1.7-6.6h-14.3l-1.6,6.6H780.6z M805.8,431.3h7.9l-1.6-6
			c-0.8-3-1.3-5.4-1.6-7c-0.3-1.6-0.5-3.2-0.5-4.6h-0.3c-0.1,1.4-0.3,3-0.5,4.6c-0.3,1.6-0.8,4-1.6,7L805.8,431.3z"/>
	</g>
	<g>
		<path d="M341.9,525.9v-35.6h-10.6v-17.3h40.2v17.3h-10.6v35.6H341.9z"/>
		<path d="M381.4,525.9v-52.9h35.3v14.3h-16.7v5.1h15.2V506h-15.2v5.6h17.2v14.3H381.4z"/>
		<path d="M428.8,525.9v-52.9h19v17.6h11.6v-17.6h19v52.9h-19v-18.6h-11.6v18.6H428.8z"/>
		<path d="M492.2,525.9v-52.9h18.6l16.4,27.7c-0.2-1.2-0.4-2.6-0.4-4.1c-0.1-1.5-0.1-3.4-0.1-5.8v-17.7H545v52.9h-18.8L510,498.5
			c0.2,1.2,0.3,2.4,0.4,3.8c0.1,1.4,0.1,2.9,0.1,4.6v19.1H492.2z"/>
		<path d="M558.9,525.9v-52.9h19.3v52.9H558.9z"/>
		<path d="M631.2,494c-1.7-1.7-3.5-2.9-5.3-3.7c-1.8-0.8-3.7-1.2-5.7-1.2c-3.1,0-5.6,1-7.5,2.9c-1.9,1.9-2.8,4.5-2.8,7.6
			c0,3.1,0.9,5.6,2.7,7.4c1.8,1.9,4.2,2.8,7.3,2.8c1.8,0,3.7-0.4,5.6-1.2c1.9-0.8,4-2,6.2-3.7l-0.6,19.9c-2.1,0.8-4.1,1.5-6.2,1.9
			c-2.1,0.4-4.1,0.6-6.2,0.6c-2.6,0-5.1-0.3-7.4-0.9c-2.4-0.6-4.5-1.4-6.5-2.5c-4.7-2.7-8.2-6.1-10.6-10.2
			c-2.4-4.1-3.6-8.8-3.6-14.2c0-3.9,0.7-7.6,2-11c1.4-3.4,3.3-6.3,5.9-8.9c2.6-2.6,5.7-4.6,9.1-5.9c3.5-1.3,7.2-2,11.2-2
			c2.1,0,4.3,0.2,6.3,0.7c2.1,0.4,4.1,1.1,6.1,2V494z"/>
		<path d="M636.4,525.9l18.8-52.9h21.2l18.5,52.9h-20.4l-1.7-6.6h-14.3l-1.6,6.6H636.4z M661.6,506.7h7.9l-1.6-6
			c-0.8-3-1.3-5.4-1.6-7c-0.3-1.6-0.5-3.2-0.5-4.6h-0.3c-0.1,1.4-0.2,3-0.5,4.6c-0.3,1.6-0.8,4-1.6,7L661.6,506.7z"/>
	</g>
	<polygon class="st0" points="655,460.6 676.6,460.6 676.6,467 655,467 655,460.6 	"/>
	<path class="st0" d="M655,142H534c-9.8,0-14.3,3.2-14.3,12.2v212.7c17-0.5,33.3-4.2,48.2-10.5V175.5c0-7.6,4.6-20.1,18.3-20.3H655
		V142L655,142z"/>
	<path class="st1" d="M605.5,336.8c-6.5,4.9-14.5,9.4-21.8,12.9V184.5c0-8.8,6.9-13.6,16.8-13.6H655v58.3
		C655,275.6,642.2,309.3,605.5,336.8L605.5,336.8z"/>
	<path class="st0" d="M369.8,142h121c9.8,0,14.3,3.2,14.3,12.2v212.7c-17-0.5-33.3-4.2-48.2-10.5V175.5c0-7.6-4.6-20.1-18.3-20.3
		h-68.7V142L369.8,142z"/>
	<path class="st1" d="M419.3,336.8c6.5,4.9,14.5,9.4,21.8,12.9V184.5c0-8.8-6.9-13.6-16.8-13.6h-54.6v58.3
		C369.8,275.6,382.6,309.3,419.3,336.8L419.3,336.8z"/>
</g>
</svg>
